<svg xmlns="http://www.w3.org/2000/svg" width="210mm" height="210mm" viewBox="0 0 210 210"><defs><clipPath id="a" clipPathUnits="userSpaceOnUse"><ellipse cx="75.495" cy="86.504" rx="40.574" ry="42.125" style="fill:#f9f9f9;stroke:#000;stroke-width:0;stroke-dasharray:none"/></clipPath><clipPath id="b" clipPathUnits="userSpaceOnUse"><ellipse cx="75.557" cy="87.067" rx="40.574" ry="42.125" style="fill:#999;stroke:#000;stroke-width:1;stroke-dasharray:none"/></clipPath></defs><ellipse cx="82.997" cy="74.896" rx="67.855" ry="68.244" style="fill:#520;stroke:#000;stroke-width:1.50634"/><rect width="25.276" height="93.131" x="9.315" y="176.119" rx="4.299" ry="6.049" style="fill:#520;stroke:#000;stroke-width:1.50634" transform="rotate(-39.517)"/><ellipse cx="82.9" cy="73.535" rx="48.315" ry="50.162" style="fill:#999;stroke:#000;stroke-width:1.50634"/><g clip-path="url(#a)" transform="matrix(1.19078 0 0 1.19078 -7.023 -29.9)"><text xml:space="preserve" x="57.147" y="90.618" style="font-size:50.8px;fill:navy;stroke:#000;stroke-width:0;stroke-dasharray:none"><tspan x="57.147" y="90.618" style="font-size:50.8px;stroke-width:0;stroke-dasharray:none">pena</tspan></text></g><path d="M-54.645-40.437A13.416 13.696 0 0 1-66.87-26.795a13.416 13.696 0 0 1-14.395-11.22 13.416 13.696 0 0 1 9.669-15.634l3.535 13.212z" style="fill:#f9f9f9;stroke:none;stroke-width:1.38642" transform="matrix(-.99254 -.12189 .1177 -.99305 0 0)"/><text xml:space="preserve" x="62.698" y="117.886" clip-path="url(#b)" style="font-size:19.7556px;fill:#000;stroke:#000;stroke-width:0;stroke-dasharray:none" transform="matrix(1.19078 0 0 1.19078 -7.023 -29.9)"><tspan x="62.698" y="117.886" style="font-size:19.7556px;stroke-width:0">gitar</tspan></text><path d="M-54.645-40.437A13.416 13.696 0 0 1-66.87-26.795a13.416 13.696 0 0 1-14.395-11.22 13.416 13.696 0 0 1 9.669-15.634l3.535 13.212z" style="fill:#f9f9f9;stroke:none;stroke-width:1.38642" transform="matrix(-.99254 -.12189 .1177 -.99305 0 0)"/><ellipse cx="82.997" cy="74.896" rx="67.855" ry="68.244" style="fill:#520;stroke:#000;stroke-width:1.50634"/><rect width="25.276" height="93.131" x="9.315" y="176.119" rx="4.299" ry="6.049" style="fill:#520;stroke:#000;stroke-width:1.50634" transform="rotate(-39.517)"/><ellipse cx="82.9" cy="73.535" rx="48.315" ry="50.162" style="fill:#999;stroke:#000;stroke-width:1.50634"/><g clip-path="url(#a)" transform="matrix(1.19078 0 0 1.19078 -7.023 -29.9)"><text xml:space="preserve" x="57.147" y="90.618" style="font-size:50.8px;fill:navy;stroke:#000;stroke-width:0;stroke-dasharray:none"><tspan x="57.147" y="90.618" style="font-style:normal;font-variant:normal;font-weight:400;font-stretch:normal;font-size:50.8px;font-family:Verdana;-inkscape-font-specification:Verdana;stroke-width:0;stroke-dasharray:none">pena</tspan></text></g><path d="M-54.645-40.437A13.416 13.696 0 0 1-66.87-26.795a13.416 13.696 0 0 1-14.395-11.22 13.416 13.696 0 0 1 9.669-15.634l3.535 13.212z" style="fill:#f9f9f9;stroke:none;stroke-width:1.38642" transform="matrix(-.99254 -.12189 .1177 -.99305 0 0)"/><text xml:space="preserve" x="62.698" y="117.886" clip-path="url(#b)" style="font-size:19.7556px;fill:#000;stroke:#000;stroke-width:0;stroke-dasharray:none" transform="matrix(1.19078 0 0 1.19078 -7.023 -29.9)"><tspan x="62.698" y="117.886" style="font-style:normal;font-variant:normal;font-weight:400;font-stretch:normal;font-size:19.7556px;font-family:Verdana;-inkscape-font-specification:Verdana;stroke-width:0">gitar</tspan></text><path d="M-54.645-40.437A13.416 13.696 0 0 1-66.87-26.795a13.416 13.696 0 0 1-14.395-11.22 13.416 13.696 0 0 1 9.669-15.634l3.535 13.212z" style="fill:#f9f9f9;stroke:none;stroke-width:1.38642" transform="matrix(-.99254 -.12189 .1177 -.99305 0 0)"/></svg>